<?xml version="1.0" standalone="no"?>
<!DOCTYPE svg PUBLIC "-//W3C//DTD SVG 20010904//EN"
 "http://www.w3.org/TR/2001/REC-SVG-20010904/DTD/svg10.dtd">
<svg version="1.0" xmlns="http://www.w3.org/2000/svg"
 width="260.000000pt" height="260.000000pt" viewBox="0 0 260.000000 260.000000"
 preserveAspectRatio="xMidYMid meet">
<metadata>
Created by potrace 1.11, written by Peter Selinger 2001-2013
</metadata>
<g transform="translate(0.000000,260.000000) scale(0.100000,-0.100000)"
fill="#000000" stroke="none">
<path d="M1546 2533 c-3 -10 -8 -40 -11 -68 -3 -27 -7 -60 -9 -72 -3 -11 -8
-43 -11 -70 -4 -26 -11 -64 -15 -83 -5 -19 -11 -55 -14 -80 -4 -25 -11 -63
-17 -85 -5 -22 -12 -51 -15 -65 -2 -14 -12 -52 -20 -85 -9 -33 -17 -67 -19
-75 -2 -8 -10 -42 -19 -75 -9 -33 -19 -68 -21 -78 -7 -29 -14 -34 -42 -30 -55
8 -219 4 -268 -6 -27 -6 -60 -13 -73 -15 -72 -15 -188 -69 -273 -127 -61 -41
-159 -127 -159 -139 0 -4 47 -19 105 -34 173 -45 481 -152 509 -177 5 -5 3
-22 -4 -41 -30 -76 -171 -361 -227 -460 l-61 -108 25 -20 c30 -24 37 -24 52
-6 14 16 168 321 199 391 11 28 30 70 41 95 10 25 26 62 34 82 l16 37 93 -51
c380 -207 559 -413 559 -642 1 -129 -47 -224 -152 -301 -182 -134 -472 -147
-743 -35 -162 68 -280 157 -431 325 -19 21 -18 18 5 -12 48 -65 142 -158 212
-209 92 -68 258 -148 353 -171 201 -47 417 -33 554 37 284 145 316 478 72 751
-28 31 -47 60 -43 64 4 5 2 5 -4 2 -7 -4 -27 7 -45 24 -49 43 -241 170 -331
219 -43 23 -78 44 -78 46 0 2 27 86 61 186 33 101 62 189 64 195 5 15 115 -22
187 -62 l44 -25 18 -122 c10 -68 19 -133 21 -146 12 -81 29 -162 36 -162 4 0
3 17 -1 38 -5 20 -11 60 -15 87 -3 28 -8 59 -11 70 -3 11 -7 38 -9 60 -14 135
-15 155 -6 155 5 0 47 -36 93 -80 45 -44 83 -80 84 -80 0 0 14 11 30 25 l28
24 -24 28 c-51 57 -114 111 -183 156 -49 32 -57 42 -58 70 0 17 -2 40 -4 50
-4 20 -13 108 -29 292 -3 33 -8 98 -11 145 -3 47 -7 108 -10 137 -2 29 -7 112
-10 185 -4 73 -9 134 -10 136 -2 2 -6 -5 -9 -15z m8 -448 c7 -103 11 -138 22
-214 3 -24 8 -65 10 -90 2 -25 6 -59 9 -76 2 -16 7 -52 10 -78 l7 -48 -39 16
c-65 28 -143 54 -143 48 0 -4 -2 -4 -5 -1 -3 3 10 70 29 149 34 141 76 346 79
388 3 49 15 -2 21 -94z m-256 -488 c18 -3 35 -7 38 -9 2 -3 -18 -70 -47 -149
-28 -79 -56 -159 -62 -178 -6 -18 -16 -35 -23 -38 -6 -2 -59 16 -117 41 -57
24 -173 66 -256 93 -83 26 -151 51 -151 55 0 3 31 27 70 53 109 72 233 118
355 131 33 4 61 7 62 9 4 2 90 -3 131 -8z"/>
<path d="M1695 1030 c3 -5 8 -10 11 -10 2 0 4 5 4 10 0 6 -5 10 -11 10 -5 0
-7 -4 -4 -10z"/>
<path d="M1703 975 c0 -8 4 -12 9 -9 5 3 6 10 3 15 -9 13 -12 11 -12 -6z"/>
<path d="M1710 940 c0 -5 5 -10 11 -10 5 0 7 5 4 10 -3 6 -8 10 -11 10 -2 0
-4 -4 -4 -10z"/>
</g>
</svg>
